<svg xmlns="http://www.w3.org/2000/svg" viewBox="0 0 64 64">
  <defs>
    <linearGradient id="g" x1="8" y1="56" x2="56" y2="8" gradientUnits="userSpaceOnUse">
      <stop offset="0" stop-color="#e85a6a"/>
      <stop offset="1" stop-color="#f3b08b"/>
    </linearGradient>
  </defs>
  <rect x="6" y="6" width="52" height="52" rx="16" fill="url(#g)"/>
  <path
    d="M22.5 23.5c-1.7 0-3.2 1.2-3.4 2.9-.7 5.7.9 18.1 7.2 18.1 3.2 0 3.2-7.5 5.7-7.5s2.5 7.5 5.7 7.5c6.3 0 7.9-12.4 7.2-18.1-.2-1.7-1.7-2.9-3.4-2.9-2.1 0-4.5 1.4-6.2 1.4-1.5 0-2.6-1-3.3-1.8-.5-.6-1.2-1-2-1s-1.5.4-2 1c-.7.8-1.8 1.8-3.3 1.8-1.7 0-4.1-1.4-6.2-1.4Z"
    fill="#fff"
    opacity=".95"
  />
</svg>
